<svg xmlns="http://www.w3.org/2000/svg" viewBox="0 0 600 460"><rect width="600" height="460" fill="white"/><g stroke="#202b33" stroke-width="3" fill="none"><path d="M60 190 V405 Q60 425 80 425 H295 Q315 425 315 405 V190"/><path d="M62 260 H313" stroke="#668899"/><path d="M170 45 V230 Q110 265 137 335 L128 365 H222 L213 335 Q240 265 185 230 V45"/><path d="M138 300 H212" stroke="#668899"/><path d="M128 365 H222" stroke-width="6"/><path d="M155 100 H205" stroke-width="10"/><path d="M184 65 H370 M205 100 H370 M270 260 H370 M180 315 H370 M175 365 H370" stroke-width="1.5"/></g><g font-family="Arial,sans-serif" font-size="21" fill="#17232b"><text x="380" y="72">Thistle funnel</text><text x="380" y="107">Clamp</text><text x="380" y="258">Distilled</text><text x="380" y="283">water</text><text x="380" y="320">Sugar solution</text><text x="380" y="364">Membrane over</text><text x="380" y="390">funnel opening</text></g></svg>