<svg xmlns="http://www.w3.org/2000/svg" viewBox="0 0 520 470" role="img" aria-labelledby="title desc"><title id="title">Four numbered limb elements</title><desc id="desc">A broad left blade joins a long element angled upward to the right. Two narrow elements descend from the bend. Four horizontal leaders mark separate parts with I to IV.</desc><g fill="#f7faf8" stroke="#172b25" stroke-width="3" stroke-linejoin="round"><path d="M85 95 Q62 102 74 146 L101 215 Q111 233 121 231 L132 246 Q144 244 143 230 Q124 225 123 211 Q164 170 169 124 Q174 89 160 86 Q146 76 126 93 Q107 91 85 95 Z"/><path d="M129 241 Q122 258 138 270 Q151 278 171 261 L257 191 Q267 181 275 182 L281 170 Q270 165 259 175 L153 249 Q143 256 143 241 Z"/><path d="M273 182 L281 158 Q288 153 298 158 Q290 196 277 226 L233 334 Q228 346 220 341 Q250 259 267 213 Q276 194 273 182 Z"/><path d="M261 191 Q271 184 274 194 Q268 225 251 269 L216 340 L203 336 Q222 301 239 260 Q254 219 261 191 Z"/><path d="M204 338 L229 344 L220 361 L201 357 Z M202 357 L196 378 L186 391 L181 388 L190 372 L192 355 Z M209 360 L204 384 L196 399 L190 396 L197 380 L201 358 Z M217 361 L212 389 L204 402 L199 399 L205 383 L208 360 Z"/></g><g fill="none" stroke="#172b25" stroke-width="2"><path d="M100 126 Q89 178 120 213 M143 128 L135 199 M153 112 H387 M287 174 H387 M250 204 H387 M237 276 H387"/></g><g fill="#172b25" font-family="Arial, sans-serif" font-size="25"><text x="407" y="120">I</text><text x="407" y="182">II</text><text x="407" y="212">III</text><text x="407" y="284">IV</text></g></svg>
