<svg xmlns="http://www.w3.org/2000/svg" viewBox="0 0 680 300" role="img" aria-labelledby="title desc"><title id="title">Cell with a numbered gap</title><desc id="desc">A branched body at left joins a long thin process covered by three oval segments, ending in branches at right. I points between the second and third segments.</desc><g stroke="#172b25" fill="none" stroke-width="2.5" stroke-linecap="round" stroke-linejoin="round"><path fill="#f7faf8" d="M147 108 L172 119 L186 147 L168 166 L151 180 L144 204 L127 178 L103 183 L102 158 L81 142 L105 124 L116 101 L131 115 Z"/><ellipse cx="135" cy="145" rx="12" ry="9"/><path d="M118 110 L116 80 L101 67 M116 84 L128 63 M104 70 L94 77 M103 180 L88 204 L71 199 M89 203 L88 224 M81 141 L59 130 L44 145 M59 130 L48 111 M145 198 L149 223 L166 236 M148 222 L135 235 M169 119 L178 94 L196 84 M178 98 L167 86"/><path d="M181 143 H550 M181 151 H550"/><ellipse cx="246" cy="147" rx="58" ry="24"/><ellipse cx="367" cy="147" rx="58" ry="24"/><ellipse cx="488" cy="147" rx="58" ry="24"/><path d="M552 146 L577 130 L595 105 L625 96 L646 80 M596 105 L624 112 L646 100 M552 150 L583 164 L611 178 L643 180 M583 164 L600 199 L623 215 M428 146 V61"/></g><text x="423" y="43" font-family="Arial, sans-serif" font-size="25" fill="#172b25">I</text></svg>
