<svg xmlns="http://www.w3.org/2000/svg" width="48" height="48" viewBox="0 0 48 48" fill="none" stroke="white" stroke-width="2" stroke-linecap="round" stroke-linejoin="round"><rect x="10" y="12" width="28" height="24" rx="4"/><circle cx="20" cy="24" r="2.5"/><circle cx="28" cy="24" r="2.5"/><path d="M18 30c0 0 2 3 6 3s6-3 6-3"/><line x1="18" y1="12" x2="18" y2="8"/><line x1="30" y1="12" x2="30" y2="8"/><path d="M14 8h4"/><path d="M30 8h4"/><path d="M36 40l2-4M12 40l-2-4"/><circle cx="38" cy="10" r="3" fill="white" stroke="none"/><path d="M36 10l2-2m0 4l2-2m-4 0l2 2" stroke="white" stroke-width="1.5"/></svg>
